<svg xmlns="http://www.w3.org/2000/svg" xmlns:xlink="http://www.w3.org/1999/xlink" preserveAspectRatio="xMidYMid" width="59.719" height="60" viewBox="0 0 59.719 60">
  <path d="M55.819,18.747 C55.702,19.061 55.436,19.297 55.111,19.371 L45.467,21.624 C46.982,23.830 48.115,26.365 48.843,29.133 L58.916,31.016 C59.457,31.118 59.813,31.639 59.712,32.183 C59.623,32.663 59.205,33.000 58.735,33.000 C58.674,33.000 58.613,32.995 58.551,32.982 L49.309,31.255 C49.604,32.912 49.774,34.633 49.774,36.421 C49.774,38.043 49.543,39.630 49.131,41.165 L55.111,42.559 C55.412,42.628 55.663,42.836 55.791,43.118 L59.639,51.585 C59.868,52.087 59.647,52.680 59.147,52.910 C59.013,52.970 58.873,53.000 58.734,53.000 C58.357,53.000 57.995,52.783 57.828,52.415 L54.183,44.397 L48.513,43.073 C44.881,52.779 34.341,59.999 29.863,59.999 C25.386,59.999 14.846,52.779 11.214,43.073 L5.545,44.397 L1.899,52.415 C1.731,52.783 1.370,53.000 0.992,53.000 C0.854,53.000 0.713,52.970 0.579,52.909 C0.079,52.680 -0.141,52.087 0.087,51.585 L3.937,43.118 C4.065,42.836 4.317,42.628 4.618,42.559 L10.595,41.166 C10.183,39.630 9.953,38.043 9.953,36.421 C9.953,34.646 10.127,32.921 10.431,31.253 L1.175,32.982 C1.113,32.995 1.052,33.000 0.992,33.000 C0.521,33.000 0.103,32.663 0.014,32.183 C-0.086,31.639 0.270,31.118 0.811,31.016 L10.904,29.130 C11.637,26.379 12.769,23.837 14.275,21.627 L4.617,19.371 C4.292,19.297 4.026,19.061 3.910,18.747 L0.060,8.348 C-0.132,7.831 0.131,7.255 0.646,7.062 C1.160,6.867 1.734,7.134 1.926,7.652 L5.589,17.545 L15.407,19.838 C15.469,19.853 15.517,19.890 15.574,19.915 C16.625,18.659 17.803,17.533 19.108,16.576 C18.982,16.073 18.912,15.543 18.912,14.998 C18.912,12.288 20.325,10.315 22.974,9.167 C22.943,8.847 22.895,8.531 22.895,8.206 C22.895,3.681 26.021,0.000 29.863,0.000 C33.706,0.000 36.832,3.681 36.832,8.206 C36.832,8.552 36.818,8.863 36.787,9.182 C39.414,10.333 40.814,12.300 40.814,14.998 C40.814,15.531 40.739,16.057 40.607,16.562 C41.934,17.523 43.114,18.657 44.174,19.906 C44.224,19.885 44.267,19.851 44.322,19.838 L54.139,17.545 L57.800,7.652 C57.992,7.134 58.565,6.867 59.081,7.062 C59.596,7.255 59.859,7.831 59.667,8.348 L55.819,18.747 ZM29.863,2.000 C27.119,2.000 24.886,4.784 24.886,8.206 C24.886,8.315 24.908,8.418 24.912,8.527 C26.330,8.182 27.980,8.000 29.863,8.000 C31.756,8.000 33.413,8.184 34.836,8.532 C34.839,8.430 34.841,8.326 34.841,8.206 C34.841,4.784 32.608,2.000 29.863,2.000 ZM39.755,18.453 C39.375,19.009 38.909,19.486 38.370,19.838 C37.910,20.141 37.292,20.008 36.993,19.545 C36.693,19.082 36.824,18.462 37.285,18.161 C38.205,17.560 38.823,16.290 38.823,14.998 C38.823,10.867 33.951,9.999 29.863,9.999 C25.776,9.999 20.903,10.867 20.903,14.998 C20.903,16.349 21.497,17.585 22.416,18.145 C22.886,18.431 23.035,19.047 22.750,19.519 C22.563,19.829 22.234,20.000 21.898,20.000 C21.722,20.000 21.544,19.953 21.382,19.853 C20.820,19.510 20.338,19.039 19.951,18.479 C14.935,22.353 11.944,28.953 11.944,36.421 C11.944,48.291 25.473,57.999 29.863,57.999 C34.254,57.999 47.783,48.291 47.783,36.421 C47.783,28.795 44.852,22.325 39.755,18.453 Z" />
</svg>
