<svg xmlns="http://www.w3.org/2000/svg" xmlns:xlink="http://www.w3.org/1999/xlink" preserveAspectRatio="xMidYMid" width="59.906" height="60" viewBox="0 0 59.906 60">
  <defs>
    <style>
      .cls-1 {
        fill: #000;
        fill-rule: evenodd;
      }
    </style>
  </defs>
  <path d="M35.944,47.997 C29.698,47.997 24.020,45.571 19.750,41.635 L11.398,50.000 L19.678,58.292 C20.068,58.682 20.068,59.316 19.678,59.706 C19.483,59.901 19.227,59.999 18.972,59.999 C18.717,59.999 18.461,59.901 18.266,59.706 L9.986,51.414 L1.705,59.706 C1.510,59.901 1.255,59.999 0.999,59.999 C0.744,59.999 0.488,59.901 0.293,59.706 C-0.097,59.316 -0.097,58.682 0.293,58.292 L8.574,50.000 L0.293,41.706 C-0.097,41.316 -0.097,40.682 0.293,40.292 C0.683,39.902 1.315,39.902 1.705,40.292 L9.986,48.586 L18.338,40.221 C14.406,35.945 11.982,30.257 11.982,23.999 C11.982,10.766 22.732,-0.000 35.944,-0.000 C49.157,-0.000 59.906,10.766 59.906,23.999 C59.906,37.232 49.157,47.997 35.944,47.997 ZM35.944,1.999 C23.832,1.999 13.979,11.868 13.979,23.999 C13.979,36.129 23.832,45.998 35.944,45.998 C48.056,45.998 57.910,36.129 57.910,23.999 C57.910,11.868 48.056,1.999 35.944,1.999 Z" class="cls-1"/>
</svg>
