<svg xmlns="http://www.w3.org/2000/svg" xmlns:xlink="http://www.w3.org/1999/xlink" preserveAspectRatio="xMidYMid" width="60" height="59.97" viewBox="0 0 60 59.97">
  <defs>
    <style>
      .cls-1 {
        <!-- fill: #000; -->
        fill-rule: evenodd;
      }
    </style>
  </defs>
  <path d="M58.904,18.049 C58.352,18.049 58.000,17.551 58.000,16.999 L58.000,3.383 L41.514,19.769 C45.476,24.045 47.920,29.747 47.920,36.023 C47.920,49.235 37.170,59.984 23.958,59.984 C10.746,59.984 -0.003,49.235 -0.003,36.023 C-0.003,22.811 10.746,12.061 23.958,12.061 C30.178,12.061 35.833,14.463 40.097,18.362 L56.560,1.999 L43.000,1.999 C42.449,1.999 41.931,1.629 41.931,1.078 C41.931,0.526 42.449,-0.000 43.000,-0.000 L59.000,-0.000 C59.551,-0.000 60.000,0.448 60.000,0.999 L60.000,16.999 C60.000,17.551 59.455,18.049 58.904,18.049 ZM23.958,14.057 C11.847,14.057 1.994,23.911 1.994,36.023 C1.994,48.133 11.847,57.987 23.958,57.987 C36.070,57.987 45.923,48.133 45.923,36.023 C45.923,23.911 36.070,14.057 23.958,14.057 Z" class="cls-1"/>
</svg>
