<svg xmlns="http://www.w3.org/2000/svg" xmlns:xlink="http://www.w3.org/1999/xlink" preserveAspectRatio="xMidYMid" width="60" height="60" viewBox="0 0 60 60">
  <path d="M30.000,59.999 C13.458,59.999 -0.000,46.541 -0.000,29.999 C-0.000,13.457 13.458,-0.000 30.000,-0.000 C46.542,-0.000 60.000,13.457 60.000,29.999 C60.000,46.541 46.542,59.999 30.000,59.999 ZM30.000,1.998 C14.561,1.998 2.000,14.560 2.000,29.999 C2.000,45.439 14.561,57.999 30.000,57.999 C45.439,57.999 58.000,45.439 58.000,29.999 C58.000,14.560 45.439,1.998 30.000,1.998 ZM34.758,29.503 C30.710,32.937 30.993,36.876 30.997,36.915 C31.043,37.465 30.634,37.949 30.084,37.995 C30.056,37.998 30.027,37.999 29.999,37.999 C29.485,37.999 29.047,37.605 29.003,37.084 C28.986,36.880 28.640,32.072 33.463,27.979 C35.290,26.428 36.002,24.917 36.002,22.592 C36.002,18.957 33.310,15.999 30.000,15.999 C26.637,15.999 24.002,18.782 24.002,22.335 C24.002,22.887 23.554,23.335 23.002,23.335 C22.450,23.335 22.002,22.887 22.002,22.335 C22.002,17.661 25.515,13.999 30.000,13.999 C34.412,13.999 38.002,17.855 38.002,22.592 C38.002,25.506 37.032,27.572 34.758,29.503 ZM29.921,42.999 C31.024,42.999 31.921,43.896 31.921,44.999 C31.921,46.101 31.024,46.999 29.921,46.999 C28.818,46.999 27.921,46.101 27.921,44.999 C27.921,43.896 28.818,42.999 29.921,42.999 Z" />
</svg>
