<svg xmlns="http://www.w3.org/2000/svg" xmlns:xlink="http://www.w3.org/1999/xlink" preserveAspectRatio="xMidYMid" width="56" height="60" viewBox="0 0 56 60">
  <defs>
    <style>
      .cls-1 {
        fill: #000;
        fill-rule: evenodd;
      }
    </style>
  </defs>
  <path d="M55.000,49.003 C54.447,49.003 54.000,48.555 54.000,48.003 L54.000,36.006 C54.000,35.453 54.447,35.006 55.000,35.006 C55.553,35.006 56.000,35.453 56.000,36.006 L56.000,48.003 C56.000,48.555 55.553,49.003 55.000,49.003 ZM50.000,60.000 L6.000,60.000 C5.447,60.000 5.000,59.552 5.000,59.000 L5.000,36.925 C5.000,24.549 14.783,14.446 27.000,13.915 L27.000,9.895 C24.721,9.431 23.000,7.412 23.000,4.998 C23.000,2.242 25.243,-0.001 28.000,-0.001 C30.757,-0.001 33.000,2.242 33.000,4.998 C33.000,7.412 31.279,9.430 29.000,9.895 L29.000,13.915 C41.217,14.446 51.000,24.549 51.000,36.925 L51.000,59.000 C51.000,59.552 50.553,60.000 50.000,60.000 ZM31.000,4.998 C31.000,3.344 29.654,1.999 28.000,1.999 C26.346,1.999 25.000,3.344 25.000,4.998 C25.000,6.652 26.346,7.997 28.000,7.997 C29.654,7.997 31.000,6.652 31.000,4.998 ZM49.000,36.925 C49.000,25.466 39.823,16.134 28.456,15.887 C28.317,15.960 28.167,16.010 28.000,16.010 C27.833,16.010 27.683,15.960 27.544,15.887 C16.177,16.134 7.000,25.466 7.000,36.925 L7.000,58.001 L49.000,58.001 L49.000,36.925 ZM18.500,30.991 C20.981,30.991 23.000,33.009 23.000,35.490 C23.000,37.971 20.981,39.989 18.500,39.989 C16.019,39.989 14.000,37.971 14.000,35.490 C14.000,33.009 16.019,30.991 18.500,30.991 ZM18.500,37.989 C19.879,37.989 21.000,36.869 21.000,35.490 C21.000,34.111 19.879,32.991 18.500,32.991 C17.121,32.991 16.000,34.111 16.000,35.490 C16.000,36.869 17.121,37.989 18.500,37.989 ZM16.000,45.003 C16.553,45.003 17.000,45.451 17.000,46.003 L17.000,48.003 L39.000,48.003 L39.000,46.003 C39.000,45.451 39.447,45.003 40.000,45.003 C40.553,45.003 41.000,45.451 41.000,46.003 L41.000,49.003 C41.000,49.554 40.553,50.002 40.000,50.002 L16.000,50.002 C15.447,50.002 15.000,49.554 15.000,49.003 L15.000,46.003 C15.000,45.451 15.447,45.003 16.000,45.003 ZM37.500,39.989 C35.019,39.989 33.000,37.971 33.000,35.490 C33.000,33.009 35.019,30.991 37.500,30.991 C39.981,30.991 42.000,33.009 42.000,35.490 C42.000,37.971 39.981,39.989 37.500,39.989 ZM37.500,32.991 C36.121,32.991 35.000,34.111 35.000,35.490 C35.000,36.869 36.121,37.989 37.500,37.989 C38.879,37.989 40.000,36.869 40.000,35.490 C40.000,34.111 38.879,32.991 37.500,32.991 ZM1.000,49.003 C0.447,49.003 -0.000,48.555 -0.000,48.003 L-0.000,36.006 C-0.000,35.453 0.447,35.006 1.000,35.006 C1.553,35.006 2.000,35.453 2.000,36.006 L2.000,48.003 C2.000,48.555 1.553,49.003 1.000,49.003 Z" class="cls-1"/>
</svg>
