<svg xmlns="http://www.w3.org/2000/svg" xmlns:xlink="http://www.w3.org/1999/xlink" preserveAspectRatio="xMidYMid" width="60" height="60" viewBox="0 0 60 60">
  <path d="M60.000,19.752 C60.000,26.621 46.822,32.002 30.000,32.002 C13.178,32.002 0.000,26.621 0.000,19.752 C0.000,14.861 6.012,10.775 16.099,8.762 C18.327,3.631 23.713,-0.000 30.000,-0.000 C36.287,-0.000 41.674,3.632 43.901,8.762 C53.988,10.775 60.000,14.862 60.000,19.752 ZM30.000,2.000 C23.032,2.000 17.343,7.091 17.030,13.453 C18.559,14.338 23.678,17.000 29.977,17.000 C36.274,17.000 41.431,14.335 42.970,13.451 C42.656,7.089 36.967,2.000 30.000,2.000 ZM44.632,10.955 C44.867,11.936 45.000,12.953 45.000,14.000 C45.000,14.035 44.984,14.064 44.980,14.098 C44.973,14.166 44.961,14.230 44.940,14.296 C44.921,14.358 44.898,14.414 44.867,14.470 C44.838,14.525 44.804,14.574 44.764,14.622 C44.720,14.677 44.672,14.724 44.617,14.768 C44.591,14.789 44.576,14.818 44.548,14.836 C44.289,15.006 38.104,18.999 29.977,18.999 C21.844,18.999 15.706,15.004 15.448,14.834 C15.421,14.816 15.406,14.787 15.380,14.766 C15.326,14.722 15.279,14.676 15.235,14.621 C15.195,14.572 15.161,14.523 15.132,14.468 C15.101,14.412 15.079,14.356 15.059,14.294 C15.039,14.229 15.026,14.165 15.019,14.097 C15.016,14.063 15.000,14.034 15.000,14.000 C15.000,12.953 15.133,11.936 15.368,10.955 C7.192,12.784 2.000,16.163 2.000,19.752 C2.000,24.702 13.251,30.002 30.000,30.002 C46.749,30.002 58.000,24.702 58.000,19.752 C58.000,16.163 52.809,12.784 44.632,10.955 ZM21.063,38.648 C21.258,38.131 21.834,37.873 22.352,38.063 C22.868,38.258 23.130,38.834 22.937,39.352 L16.937,55.352 C16.786,55.753 16.404,56.000 16.000,56.000 C15.883,56.000 15.765,55.979 15.648,55.936 C15.132,55.742 14.870,55.165 15.063,54.648 L21.063,38.648 ZM30.000,38.000 C30.553,38.000 31.000,38.448 31.000,39.000 L31.000,59.000 C31.000,59.552 30.553,60.000 30.000,60.000 C29.447,60.000 29.000,59.552 29.000,59.000 L29.000,39.000 C29.000,38.448 29.447,38.000 30.000,38.000 ZM37.648,38.063 C38.165,37.873 38.743,38.131 38.937,38.648 L44.937,54.648 C45.130,55.165 44.868,55.742 44.352,55.936 C44.235,55.979 44.117,56.000 44.000,56.000 C43.596,56.000 43.214,55.753 43.063,55.352 L37.063,39.352 C36.870,38.834 37.132,38.258 37.648,38.063 Z" />
</svg>
